# This file uses centimeters as units for non-parametric coordinates.

mtllib TextureHammerRemodel.mtl
g default
v -0.630459 -0.121820 0.623012
v 0.623012 -0.121820 0.630459
v -0.630459 9.211529 0.623012
v 0.623012 9.211529 0.630459
v -0.623012 9.211529 -0.630459
v 0.630459 9.211529 -0.623012
v -0.623012 -0.121820 -0.630459
v 0.630459 -0.121820 -0.623012
v -0.467937 9.554375 0.462409
v 0.462409 9.554375 0.467937
v 0.467937 9.554375 -0.462409
v -0.462409 9.554375 -0.467937
v -0.467937 14.270981 0.462409
v 0.462409 14.270981 0.467937
v 0.467937 14.270981 -0.462409
v -0.462409 14.270981 -0.467937
v 0.839503 9.211529 0.004988
v 0.623092 9.554375 0.003702
v 0.623092 14.270981 0.003702
v -0.623092 14.270981 -0.003702
v -0.623092 9.554375 -0.003702
v -0.839503 9.211529 -0.004988
v -0.839503 -0.121820 -0.004988
v 0.839503 -0.121820 0.004988
v -0.005232 9.211529 0.880582
v -0.003883 9.554375 0.653583
v -0.003883 14.270981 0.653583
v 0.003883 14.270981 -0.653583
v 0.003883 9.554375 -0.653583
v 0.005232 9.211529 -0.880582
v 0.005232 -0.121820 -0.880582
v 0.000000 -0.121820 0.000000
v -0.005232 -0.121820 0.880582
v 0.408546 13.737177 0.467617
v -0.003883 13.737177 0.653583
v -0.414073 13.737177 0.462730
v -0.513860 13.737177 -0.003053
v -0.408546 13.737177 -0.467617
v 0.003883 13.737177 -0.653583
v 0.414073 13.737177 -0.462730
v 0.513860 13.737177 0.003053
v -0.947052 15.235730 0.935865
v 0.935865 15.235730 0.947052
v -0.947052 17.118681 0.935865
v 0.935865 17.118681 0.947052
v -0.935865 17.118681 -0.947052
v 0.947052 17.118681 -0.935865
v -0.935865 15.235730 -0.947052
v 0.947052 15.235730 -0.935865
v 2.181065 15.492147 -0.672113
v 2.172925 15.492147 0.697981
v 2.181065 16.862265 -0.672113
v 2.172925 16.862265 0.697981
v -2.172925 15.492147 -0.697981
v -2.181065 15.492147 0.672113
v -2.181065 16.862265 0.672113
v -2.172925 16.862265 -0.697981
v 2.803886 15.560122 -0.600439
v 2.796556 15.560122 0.633710
v 2.803886 16.794291 -0.600439
v 2.796556 16.794291 0.633710
v -2.796556 15.560122 -0.633710
v -2.803886 15.560122 0.600439
v -2.803886 16.794291 0.600439
v -2.796556 16.794291 -0.633710
v 3.303852 14.885164 -1.272440
v 3.288498 14.885164 1.311605
v 3.303852 17.469248 -1.272440
v 3.288498 17.469248 1.311605
v -3.288498 14.885164 -1.311605
v -3.303852 14.885164 1.272440
v -3.303852 17.469248 1.272440
v -3.288498 17.469248 -1.311605
v 4.489438 14.885164 -1.265396
v 4.474084 14.885164 1.318648
v 4.489438 17.469248 -1.265396
v 4.474084 17.469248 1.318648
v -4.474084 14.885164 -1.318648
v -4.489438 14.885164 1.265396
v -4.489438 17.469248 1.265396
v -4.474084 17.469248 -1.318648
v 4.481761 17.770321 0.026626
v 3.296176 17.770321 0.019583
v 2.800220 16.938084 0.016636
v 2.176995 17.021896 0.012935
v 0.941458 17.338062 0.005593
v -0.941458 17.338062 -0.005594
v -2.176995 17.021896 -0.012935
v -2.800219 16.938084 -0.016636
v -3.296176 17.770321 -0.019583
v -4.481761 17.770321 -0.026626
v -4.481761 14.584093 -0.026626
v -3.296176 14.584093 -0.019583
v -2.800219 15.416329 -0.016636
v -2.176995 15.332515 -0.012935
v -0.941458 15.016348 -0.005594
v 0.941458 15.016348 0.005593
v 2.176995 15.332515 0.012935
v 2.800220 15.416329 0.016636
v 3.296176 14.584093 0.019583
v 4.481761 14.584093 0.026626
v 4.472444 16.177206 1.594991
v 3.286857 16.177206 1.587949
v 2.795770 16.177206 0.765693
v 2.172055 16.177206 0.844502
v 0.934670 16.177206 1.148415
v -0.948248 16.177206 1.137229
v -2.181936 16.177206 0.818635
v -2.804671 16.177206 0.732422
v -3.305493 16.177206 1.548784
v -4.491079 16.177206 1.541740
v -4.481761 16.177206 -0.026626
v -4.472444 16.177206 -1.594991
v -3.286858 16.177206 -1.587949
v -2.795770 16.177206 -0.765693
v -2.172055 16.177206 -0.844502
v -0.934669 16.177206 -1.148415
v 0.948248 16.177206 -1.137229
v 2.181936 16.177206 -0.818635
v 2.804671 16.177206 -0.732422
v 3.305493 16.177206 -1.548784
v 4.491079 16.177206 -1.541740
v 4.481761 16.177206 0.026626
v -0.006110 17.205788 1.028565
v -0.000000 17.445469 0.000000
v 0.006110 17.205788 -1.028565
v 0.007418 16.177206 -1.248559
v 0.006110 15.148623 -1.028565
v -0.006110 15.148623 1.028565
v -0.007418 16.177206 1.248559
vt 0.769012 0.944466
vt 0.740807 0.943851
vt 0.732660 0.534296
vt 0.761608 0.533511
vt 0.290909 0.473592
vt 0.261991 0.473965
vt 0.254489 0.064261
vt 0.282695 0.062623
vt 0.310605 0.059345
vt 0.741418 0.977104
vt 0.712648 0.945578
vt 0.684742 0.948899
vt 0.675006 0.534588
vt 0.703702 0.534674
vt 0.319611 0.473729
vt 0.732328 0.495453
vt 0.755920 0.494589
vt 0.216494 0.516994
vt 0.708722 0.495563
vt 0.285904 0.490985
vt 0.262304 0.514760
vt 0.778145 0.493090
vt 0.728337 0.309982
vt 0.748032 0.309919
vt 0.688079 0.312098
vt 0.708664 0.310812
vt 0.285442 0.699495
vt 0.265762 0.700254
vt 0.306036 0.698276
vt 0.233078 0.474654
vt 0.238718 0.491856
vt 0.246065 0.700245
vt 0.226242 0.063656
vt 0.727717 0.250365
vt 0.704755 0.252509
vt 0.750768 0.251396
vt 0.772189 0.259132
vt 0.289247 0.751911
vt 0.266267 0.753950
vt 0.243220 0.752812
vt 0.221835 0.744966
vt 0.770296 0.200458
vt 0.726595 0.206928
vt 0.725394 0.162281
vt 0.767089 0.158812
vt 0.763484 0.117819
vt 0.724192 0.117880
vt 0.269911 0.932135
vt 0.765698 0.076703
vt 0.309885 0.843598
vt 0.268063 0.842061
vt 0.267146 0.797399
vt 0.311112 0.801849
vt 0.498835 0.202393
vt 0.393596 0.542105
vt 0.453103 0.527666
vt 0.453103 0.604068
vt 0.380868 0.604068
vt 0.476030 0.334439
vt 0.535536 0.348878
vt 0.548264 0.410841
vt 0.682615 0.202724
vt 0.663833 0.238652
vt 0.158035 0.793283
vt 0.624312 0.186640
vt 0.223398 0.803620
vt 0.226339 0.845296
vt 0.168533 0.853948
vt 0.165902 0.822474
vt 0.227230 0.927425
vt 0.684941 0.119871
vt 0.629142 0.123644
vt 0.175605 0.915481
vt 0.683569 0.160984
vt 0.625444 0.155105
vt 0.330115 0.766012
vt 0.827691 0.181238
vt 0.375949 0.788832
vt 0.824840 0.149823
vt 0.363515 0.911686
vt 0.819340 0.118633
vt 0.369349 0.818297
vt 0.367972 0.849842
vt 0.138743 0.795240
vt 0.593373 0.184916
vt 0.138405 0.858620
vt 0.135137 0.825782
vt 0.599526 0.119277
vt 0.157369 0.918917
vt 0.595233 0.151955
vt 0.858528 0.177765
vt 0.395216 0.789931
vt 0.854929 0.144993
vt 0.381999 0.914370
vt 0.848560 0.112720
vt 0.400312 0.820233
vt 0.398175 0.853183
vt 0.105007 0.767842
vt 0.548258 0.195493
vt 0.095758 0.865403
vt 0.090128 0.817262
vt 0.558312 0.098486
vt 0.134607 0.955247
vt 0.552897 0.147488
vt 0.904067 0.186676
vt 0.427364 0.761134
vt 0.897430 0.138036
vt 0.406587 0.949602
vt 0.888039 0.090276
vt 0.445582 0.810011
vt 0.440595 0.857908
vt 0.476030 0.410841
vt 0.038253 0.813905
vt 0.510034 0.083081
vt 0.416523 0.348878
vt 0.403795 0.410841
vt 0.512610 0.542105
vt 0.525337 0.604068
vt 0.493512 0.864296
vt 0.104866 0.913154
vt 0.056869 0.932750
vt 0.144542 0.890940
vt 0.173819 0.885189
vt 0.229686 0.886316
vt 0.268979 0.886480
vt 0.308236 0.884723
vt 0.364022 0.881315
vt 0.393512 0.885838
vt 0.434282 0.906156
vt 0.535536 0.472805
vt 0.310306 0.715570
vt 0.790962 0.235383
vt 0.683740 0.294875
vt 0.202933 0.768570
vt 0.722986 0.072240
vt 0.312374 0.925705
vt 0.476030 0.487244
vt 0.089327 0.982740
vt 0.416523 0.472805
vt 0.478282 0.747010
vt 0.516091 0.258778
vt 0.566861 0.244221
vt 0.598707 0.215173
vt 0.617917 0.216134
vt 0.835683 0.210331
vt 0.854834 0.208230
vt 0.888035 0.235172
vt 0.903080 0.020574
vt 0.858017 0.048376
vt 0.835548 0.084833
vt 0.817371 0.088363
vt 0.680550 0.078933
vt 0.629488 0.093333
vt 0.611082 0.090835
vt 0.586853 0.056206
vt 0.225438 0.699802
vt 0.768661 0.310291
vt 0.308166 0.491594
vt 0.253881 0.031044
vt 0.198230 0.061402
vt 0.204400 0.475843
vt 0.796909 0.946737
vt 0.790393 0.532233
vt 0.686458 0.516735
vt 0.045131 0.873632
vt 0.453103 0.680471
vt 0.512610 0.666032
vt 0.495086 0.803548
vt 0.947905 0.129308
vt 0.935847 0.070333
vt 0.500007 0.141722
vt 0.393596 0.666032
vt 0.053062 0.756306
vt 0.537955 0.029055
vt 0.483350 0.923439
vt 0.942591 0.247943
vt 0.453175 0.974924
vt 0.954710 0.188516
vt 0.266267 0.726290
vt 0.243220 0.725152
vt 0.727717 0.283952
vt 0.704755 0.286095
vt 0.772189 0.292719
vt 0.310306 0.743230
vt 0.289247 0.724251
vt 0.221835 0.717306
vt 0.683740 0.261288
vt 0.750768 0.284982
vt 0.262304 0.491052
vt 0.238718 0.515564
vt 0.732328 0.517186
vt 0.708722 0.517296
vt 0.778145 0.514823
vt 0.308166 0.515302
vt 0.285904 0.514694
vt 0.216494 0.493286
vt 0.686458 0.495002
vt 0.755920 0.516322
vn -0.380906 0.000000 0.924614
vn -0.005941 0.000000 0.999982
vn -0.005940 0.017872 0.999823
vn -0.380854 0.016457 0.924489
vn -0.369843 0.016457 -0.928949
vn 0.005940 0.017872 -0.999823
vn 0.005941 0.000000 -0.999982
vn -0.369893 0.000000 -0.929074
vn 0.000000 -1.000000 0.000000
vn 0.000000 -1.000000 0.000000
vn 0.000000 -1.000000 -0.000000
vn 0.000000 -1.000000 -0.000000
vn 0.944995 0.000000 0.327085
vn 0.999982 0.000000 0.005940
vn 0.999830 0.017480 0.005940
vn 0.944879 0.015685 0.327044
vn -0.999982 0.000000 -0.005941
vn -0.948814 0.000000 0.315834
vn -0.948698 0.015685 0.315795
vn -0.999830 0.017480 -0.005940
vn -0.005926 0.070955 0.997462
vn -0.397527 0.065993 0.915214
vn 0.996893 0.078548 0.005923
vn 0.956948 0.077316 0.279771
vn -0.386625 0.065993 -0.919873
vn 0.005926 0.070955 -0.997462
vn -0.960205 0.077316 0.268381
vn -0.996893 0.078548 -0.005923
vn -0.005941 -0.000000 0.999982
vn -0.400418 -0.000113 0.916333
vn 0.999982 -0.000411 0.005941
vn 0.961353 0.000200 0.275319
vn -0.389502 -0.000113 -0.921026
vn 0.005941 0.000000 -0.999982
vn -0.964556 0.000200 0.263877
vn -0.999982 -0.000411 -0.005941
vn 0.948698 0.015685 -0.315795
vn 0.960205 0.077316 -0.268381
vn 0.964556 0.000200 -0.263877
vn -0.956948 0.077316 -0.279771
vn -0.961353 0.000200 -0.275319
vn -0.944879 0.015685 -0.327045
vn -0.944995 0.000000 -0.327085
vn 0.000000 -1.000000 0.000000
vn 0.000000 -1.000000 0.000000
vn 0.948814 0.000000 -0.315834
vn 0.369843 0.016456 0.928949
vn 0.386625 0.065993 0.919873
vn 0.389502 -0.000113 0.921026
vn 0.397528 0.065993 -0.915214
vn 0.400418 -0.000113 -0.916333
vn 0.380854 0.016457 -0.924489
vn 0.380906 0.000000 -0.924614
vn 0.000000 -1.000000 0.000000
vn 0.000000 -1.000000 0.000000
vn 0.000000 -1.000000 0.000000
vn 0.369893 0.000000 0.929074
vn -0.005940 -0.021686 0.999747
vn 0.389425 -0.019924 0.920843
vn -0.400338 -0.019923 0.916151
vn -0.954285 -0.145547 0.261068
vn -0.988514 -0.151018 -0.005872
vn -0.951116 -0.145547 -0.272388
vn -0.389425 -0.019924 -0.920843
vn 0.005940 -0.021686 -0.999747
vn 0.400339 -0.019923 -0.916150
vn 0.988514 -0.151018 0.005873
vn 0.954285 -0.145547 -0.261067
vn 0.951116 -0.145547 0.272388
vn -0.178875 -0.205996 0.962065
vn -0.005809 -0.209154 0.977865
vn -0.005941 0.000000 0.999982
vn -0.186085 -0.000000 0.982534
vn -0.176575 0.958837 0.222382
vn -0.001348 0.973909 0.226935
vn 0.000000 1.000000 0.000000
vn -0.182822 0.983145 -0.001086
vn -0.174397 0.000000 -0.984675
vn 0.005941 -0.000000 -0.999982
vn 0.005809 -0.209154 -0.977865
vn -0.167431 -0.205995 -0.964123
vn 0.999982 -0.000000 0.005941
vn 0.999982 -0.000000 0.005941
vn 0.999982 -0.000000 0.005941
vn 0.999982 0.000000 0.005941
vn -0.999982 -0.000000 -0.005941
vn -0.999982 0.000000 -0.005941
vn -0.999982 0.000000 -0.005941
vn -0.999982 0.000000 -0.005941
vn 0.240505 -0.945005 0.221637
vn 0.247898 -0.968785 0.001472
vn 0.217008 -0.976169 0.001289
vn 0.212207 -0.951448 0.222970
vn 0.178875 -0.205996 -0.962065
vn 0.186085 -0.000000 -0.982534
vn 0.219487 -0.000000 -0.975616
vn 0.216942 -0.204434 -0.954538
vn 0.182822 0.983145 0.001087
vn 0.173920 0.958836 0.224465
vn 0.212206 0.951448 0.222972
vn 0.217007 0.976169 0.001290
vn 0.174397 0.000000 0.984676
vn 0.167431 -0.205995 0.964123
vn 0.205585 -0.204433 0.957049
vn 0.207879 0.000000 0.978154
vn -0.247898 -0.968785 -0.001473
vn -0.243121 -0.945005 0.218765
vn -0.214841 -0.951447 0.220434
vn -0.217008 -0.976169 -0.001290
vn -0.219487 -0.000000 0.975616
vn -0.216942 -0.204434 0.954538
vn -0.217007 0.976169 -0.001289
vn -0.214840 0.951448 0.220434
vn -0.205586 -0.204433 -0.957048
vn -0.207879 0.000000 -0.978154
vn -0.663029 -0.748583 -0.003939
vn -0.676058 -0.718500 0.163411
vn -0.651302 0.000000 -0.758819
vn -0.667544 -0.154917 -0.728276
vn -0.676059 0.718499 0.163412
vn -0.663030 0.748582 -0.003939
vn -0.676151 -0.154916 0.720292
vn -0.660272 0.000000 0.751026
vn 0.674069 -0.718500 0.171431
vn 0.663029 -0.748583 0.003939
vn 0.651302 0.000000 0.758819
vn 0.667544 -0.154917 0.728276
vn 0.663030 0.748583 0.003939
vn 0.674069 0.718500 0.171433
vn 0.676151 -0.154916 -0.720292
vn 0.660272 -0.000000 -0.751027
vn -0.859012 -0.511929 -0.005104
vn -0.853669 -0.508325 0.113379
vn -0.852382 0.000000 -0.522920
vn -0.847201 -0.110087 -0.519742
vn -0.853669 0.508325 0.113381
vn -0.859013 0.511929 -0.005104
vn -0.853318 -0.110087 0.509637
vn -0.858536 0.000000 0.512753
vn 0.852261 -0.508327 0.123515
vn 0.859012 -0.511930 0.005104
vn 0.852382 0.000000 0.522920
vn 0.847201 -0.110087 0.519742
vn 0.859012 0.511929 0.005104
vn 0.852261 0.508326 0.123516
vn 0.853317 -0.110087 -0.509638
vn 0.858536 -0.000000 -0.512754
vn -0.001348 -0.973909 0.226935
vn 0.000000 -1.000000 -0.000000
vn 0.000000 -1.000000 -0.000000
vn -0.001348 -0.973909 0.226935
vn 0.005810 -0.209154 -0.977865
vn 0.005941 -0.000000 -0.999982
vn 0.005941 -0.000000 -0.999982
vn 0.005810 -0.209154 -0.977865
vn 0.000000 1.000000 -0.000000
vn -0.001348 0.973909 0.226936
vn -0.001348 0.973909 0.226936
vn 0.000000 1.000000 -0.000001
vn -0.005940 0.000000 0.999982
vn -0.005808 -0.209155 0.977865
vn -0.005808 -0.209155 0.977865
vn -0.005940 0.000000 0.999982
vn -0.000000 -1.000000 -0.000000
vn -0.001348 -0.973909 0.226935
vn -0.001348 -0.973909 0.226935
vn -0.000000 -1.000000 0.000000
vn -0.005810 -0.209154 0.977865
vn -0.005941 -0.000000 0.999982
vn -0.005941 -0.000000 0.999982
vn -0.005810 -0.209154 0.977865
vn -0.001348 0.973908 0.226937
vn -0.000000 1.000000 0.000000
vn -0.000000 1.000000 0.000000
vn -0.001348 0.973908 0.226937
vn 0.005940 0.000000 -0.999982
vn 0.005808 -0.209155 -0.977865
vn 0.005808 -0.209155 -0.977865
vn 0.005940 0.000000 -0.999982
vn 0.001348 0.973908 -0.226937
vn 0.001348 0.973908 -0.226937
vn -0.674069 0.718500 -0.171433
vn -0.852261 0.508326 -0.123516
vn 0.214840 0.951448 -0.220434
vn 0.176575 0.958837 -0.222382
vn 0.001348 0.973909 -0.226934
vn -0.173921 0.958837 -0.224463
vn -0.212206 0.951448 -0.222970
vn 0.676059 0.718499 -0.163411
vn 0.853669 0.508325 -0.113381
vn 0.001348 0.973909 -0.226937
vn 0.001348 0.973909 -0.226937
vn -0.999982 -0.000000 -0.005941
vn -0.999982 0.000000 -0.005941
vn 0.001348 -0.973909 -0.226935
vn 0.001348 -0.973909 -0.226935
vn 0.676059 -0.718500 -0.163411
vn 0.853669 -0.508325 -0.113379
vn -0.212207 -0.951447 -0.222972
vn -0.240505 -0.945005 -0.221639
vn 0.243121 -0.945005 -0.218765
vn 0.214841 -0.951448 -0.220434
vn -0.674068 -0.718501 -0.171431
vn -0.852261 -0.508326 -0.123515
vn 0.001348 -0.973909 -0.226935
vn 0.001348 -0.973909 -0.226935
vn 0.999982 0.000000 0.005941
vn 0.999982 0.000000 0.005941
vn -0.005808 0.209154 0.977865
vn -0.005808 0.209154 0.977865
vn -0.676152 0.154917 0.720291
vn -0.853318 0.110087 0.509637
vn 0.205586 0.204434 0.957048
vn 0.167431 0.205995 0.964123
vn -0.005810 0.209154 0.977866
vn -0.178875 0.205995 0.962065
vn -0.216942 0.204434 0.954538
vn 0.667544 0.154917 0.728276
vn 0.847201 0.110087 0.519741
vn -0.005810 0.209154 0.977865
vn -0.005810 0.209154 0.977865
vn -0.999982 0.000000 -0.005941
vn -0.999982 0.000000 -0.005941
vn -0.999982 0.000000 -0.005941
vn 0.005808 0.209154 -0.977865
vn 0.005808 0.209154 -0.977865
vn 0.676152 0.154916 -0.720291
vn 0.853317 0.110087 -0.509637
vn -0.205585 0.204433 -0.957049
vn -0.167431 0.205994 -0.964123
vn 0.005810 0.209154 -0.977866
vn 0.178875 0.205995 -0.962065
vn 0.216942 0.204435 -0.954538
vn -0.667544 0.154917 -0.728276
vn -0.847201 0.110087 -0.519741
vn 0.005810 0.209154 -0.977865
vn 0.005810 0.209154 -0.977865
vn 0.999982 0.000000 0.005941
vn 0.999982 0.000000 0.005941
vn 0.999982 0.000000 0.005941
vn 0.193134 -0.452895 0.870394
vn 0.193134 -0.452895 0.870394
vn 0.193134 -0.452895 0.870394
vn 0.193134 -0.452895 0.870394
vn 0.873983 -0.453666 0.174184
vn 0.873983 -0.453666 0.174184
vn 0.873983 -0.453666 0.174184
vn 0.873983 -0.453666 0.174184
vn 0.875991 -0.453666 -0.163786
vn 0.875991 -0.453666 -0.163786
vn 0.875991 -0.453666 -0.163786
vn 0.875991 -0.453666 -0.163786
vn 0.203462 -0.452895 -0.868038
vn 0.203462 -0.452895 -0.868038
vn 0.203462 -0.452895 -0.868038
vn 0.203462 -0.452895 -0.868038
vn -0.193133 -0.452895 -0.870394
vn -0.193133 -0.452895 -0.870394
vn -0.193133 -0.452895 -0.870394
vn -0.193133 -0.452895 -0.870394
vn -0.873983 -0.453667 -0.174184
vn -0.873983 -0.453667 -0.174184
vn -0.873983 -0.453666 -0.174184
vn -0.873983 -0.453667 -0.174184
vn -0.875991 -0.453666 0.163786
vn -0.875991 -0.453666 0.163786
vn -0.875991 -0.453666 0.163786
vn -0.875992 -0.453666 0.163786
vn -0.203462 -0.452895 0.868038
vn -0.203462 -0.452895 0.868038
vn -0.203462 -0.452895 0.868038
vn -0.203462 -0.452895 0.868038
s 1
g HammerMesh
usemtl blinn4SG
f 1/1/1 33/2/2 25/3/3 3/4/4
s 2
f 5/5/5 30/6/6 31/7/7 7/8/8
s 3
f 23/162/9 32/10/10 33/2/11 1/1/12
s 4
f 2/11/13 24/12/14 17/13/15 4/14/16
s 5
f 23/162/17 1/1/18 3/4/19 22/163/20
s 1
f 3/4/4 25/3/3 26/191/21 9/198/22
s 4
f 4/14/16 17/13/15 18/164/23 10/192/24
s 2
f 30/6/6 5/5/5 12/20/25 29/189/26
s 5
f 22/163/20 3/4/19 9/198/27 21/193/28
s 1
usemtl lambert2SG
f 9/17/22 26/16/21 35/23/29 36/24/30
s 4
f 10/19/24 18/197/23 41/25/31 34/26/32
s 2
f 29/21/26 12/195/25 38/27/33 39/28/34
s 5
f 21/22/28 9/17/27 36/24/35 37/157/36
s 4
usemtl blinn4SG
f 17/161/15 6/30/37 11/31/38 18/196/23
usemtl lambert2SG
f 41/156/31 18/18/23 11/190/38 40/32/39
s 5
f 12/195/40 21/194/28 37/29/36 38/27/41
usemtl blinn4SG
f 5/5/42 22/15/20 21/158/28 12/20/40
f 7/8/43 23/9/17 22/15/20 5/5/42
s 3
f 7/8/44 31/7/45 32/159/10 23/9/9
s 4
f 17/161/15 24/160/14 8/33/46 6/30/37
s 1
f 25/3/3 4/14/47 10/192/48 26/191/21
usemtl lambert2SG
f 35/23/29 26/16/21 10/19/48 34/26/49
s 2
f 11/190/50 29/21/26 39/28/34 40/32/51
usemtl blinn4SG
f 6/30/52 30/6/6 29/189/26 11/31/50
f 31/7/7 30/6/6 6/30/52 8/33/53
s 3
f 32/159/10 31/7/45 8/33/54 24/160/55
f 33/2/11 32/10/10 24/12/55 2/11/56
s 1
f 25/3/3 33/2/2 2/11/57 4/14/47
usemtl lambert2SG
f 27/181/58 35/23/29 34/26/49 14/182/59
f 36/24/30 35/23/29 27/181/58 13/188/60
s 5
f 37/157/36 36/24/35 13/188/61 20/183/62
f 38/27/41 37/29/36 20/131/62 16/185/63
s 2
f 39/28/34 38/27/33 16/185/64 28/179/65
f 40/32/51 39/28/34 28/179/65 15/180/66
s 4
f 19/186/67 41/156/31 40/32/39 15/180/68
f 34/26/32 41/25/31 19/133/67 14/182/69
s 6
usemtl blinn3SG
f 42/42/70 129/43/71 130/44/72 107/45/73
s 7
f 44/46/74 124/47/75 125/135/76 87/49/77
s 8
f 117/50/78 127/51/79 128/52/80 48/53/81
s 9
f 75/55/82 101/56/83 123/57/84 102/58/85
s 10
f 92/59/86 79/60/87 111/61/88 112/112/89
s 11
f 43/62/90 97/63/91 98/144/92 51/65/93
s 8
f 49/66/94 118/67/95 119/68/96 50/69/97
s 7
f 86/152/98 45/71/99 53/72/100 85/153/101
s 6
f 106/74/102 43/62/103 51/65/104 105/75/105
s 12
f 96/132/106 42/42/107 55/77/108 95/145/109
s 6
f 42/42/70 107/45/73 108/79/110 55/77/111
s 7
f 44/46/74 87/49/77 88/151/112 56/81/113
s 8
f 117/50/78 48/53/81 54/82/114 116/83/115
s 11
f 51/65/93 98/144/92 99/143/116 59/85/117
s 8
f 50/69/97 119/68/96 120/86/118 58/87/119
s 7
f 85/153/101 53/72/100 61/88/120 84/154/121
s 6
f 105/75/105 51/65/104 59/85/122 104/90/123
s 12
f 95/145/109 55/77/108 63/91/124 94/146/125
s 6
f 55/77/111 108/79/110 109/93/126 63/91/127
s 7
f 56/81/113 88/151/112 89/150/128 64/95/129
s 8
f 116/83/115 54/82/114 62/96/130 115/97/131
s 11
f 59/85/117 99/143/116 100/142/132 67/99/133
s 8
f 58/87/119 120/86/118 121/100/134 66/101/135
s 7
f 84/154/121 61/88/120 69/102/136 83/155/137
s 6
f 104/90/123 59/85/122 67/99/138 103/104/139
s 12
f 94/146/125 63/91/124 71/105/140 93/147/141
s 6
f 63/91/127 109/93/126 110/107/142 71/105/143
s 7
f 64/95/129 89/150/128 90/149/144 72/109/145
s 8
f 115/97/131 62/96/130 70/110/146 114/111/147
s 13
f 67/99/148 100/142/149 101/141/150 75/54/151
s 14
f 66/101/152 121/100/153 122/165/154 74/113/155
s 15
f 83/155/156 69/102/157 77/114/158 82/174/159
s 16
f 103/104/160 67/99/161 75/54/162 102/171/163
s 17
f 93/147/164 71/105/165 79/178/166 92/176/167
s 18
f 71/105/168 110/107/169 111/169/170 79/178/171
s 19
f 72/109/172 90/149/173 91/148/174 80/170/175
s 20
f 114/111/176 70/110/177 78/168/178 113/119/179
s 15
f 68/120/180 83/103/156 82/138/159 76/121/181
s 7
f 60/122/182 84/89/121 83/103/137 68/120/183
f 52/123/184 85/73/101 84/89/121 60/122/182
f 47/124/185 86/70/98 85/73/101 52/123/184
f 87/136/77 125/48/76 126/125/186 46/126/187
f 88/80/112 87/136/77 46/126/187 57/127/188
f 89/94/128 88/80/112 57/127/188 65/128/189
f 90/108/144 89/94/128 65/128/189 73/129/190
s 19
f 91/177/174 90/108/173 73/129/191 81/175/192
s 10
f 78/115/193 92/59/86 112/112/89 113/116/194
s 17
f 70/110/195 93/106/164 92/140/167 78/168/196
s 12
f 62/96/197 94/92/125 93/106/141 70/110/198
f 54/82/199 95/78/109 94/92/125 62/96/197
f 48/53/200 96/76/106 95/78/109 54/82/199
s 11
f 98/64/92 97/134/91 49/66/201 50/69/202
f 99/84/116 98/64/92 50/69/202 58/87/203
f 100/98/132 99/84/116 58/87/203 66/101/204
s 13
f 101/173/150 100/98/149 66/101/205 74/113/206
s 9
f 123/57/84 101/56/83 74/117/207 122/118/208
s 16
f 69/102/209 103/104/160 102/171/163 77/114/210
s 6
f 61/88/211 104/90/123 103/104/139 69/102/212
f 53/72/213 105/75/105 104/90/123 61/88/211
f 45/71/214 106/74/102 105/75/105 53/72/213
f 107/45/73 130/44/72 124/47/215 44/46/216
f 108/79/110 107/45/73 44/46/216 56/81/217
f 109/93/126 108/79/110 56/81/217 64/95/218
f 110/107/142 109/93/126 64/95/218 72/109/219
s 18
f 111/169/170 110/107/169 72/109/220 80/170/221
s 10
f 112/112/89 111/61/88 80/130/222 91/137/223
f 113/116/194 112/112/89 91/137/223 81/139/224
s 20
f 73/129/225 114/111/176 113/119/179 81/175/226
s 8
f 65/128/227 115/97/131 114/111/147 73/129/228
f 57/127/229 116/83/115 115/97/131 65/128/227
f 46/126/230 117/50/78 116/83/115 57/127/229
f 46/126/230 126/125/231 127/51/79 117/50/78
f 119/68/96 118/67/95 47/124/232 52/123/233
f 120/86/118 119/68/96 52/123/233 60/122/234
f 121/100/134 120/86/118 60/122/234 68/120/235
s 14
f 122/165/154 121/100/153 68/120/236 76/121/237
s 9
f 82/166/238 123/57/84 122/118/208 76/167/239
f 102/58/85 123/57/84 82/166/238 77/172/240
s 7
f 124/47/75 45/71/99 86/152/98 125/135/76
f 126/125/186 125/48/76 86/70/98 47/124/185
s 8
f 127/51/79 126/125/231 47/124/232 118/67/95
f 128/52/80 127/51/79 118/67/95 49/66/94
s 6
f 130/44/72 129/43/71 43/62/103 106/74/102
f 124/47/215 130/44/72 106/74/102 45/71/214
s off
f 27/34/241 14/35/242 43/62/243 129/43/244
f 14/35/245 19/187/246 97/63/247 43/62/248
f 19/41/249 15/40/250 49/66/251 97/134/252
f 15/40/253 28/39/254 128/52/255 49/66/256
f 28/39/257 16/38/258 48/53/259 128/52/260
f 16/38/261 20/184/262 96/76/263 48/53/264
f 20/37/265 13/36/266 42/42/267 96/132/268
f 13/36/269 27/34/270 129/43/271 42/42/272
